<mxfile host="app.diagrams.net" modified="2022-08-07T09:52:54.192Z" agent="5.0 (Windows NT 10.0; Win64; x64) AppleWebKit/537.36 (KHTML, like Gecko) Chrome/104.0.0.0 Safari/537.36" etag="gcUFby80o-rSpWx0jNAJ" version="20.2.0" type="github">
  <diagram id="p0gV1kGLXUghqdfHtPa9" name="Page-1">
    <mxGraphModel dx="1422" dy="705" grid="1" gridSize="10" guides="1" tooltips="1" connect="1" arrows="1" fold="1" page="1" pageScale="1" pageWidth="850" pageHeight="1100" math="0" shadow="0">
      <root>
        <mxCell id="0" />
        <mxCell id="1" parent="0" />
        <mxCell id="LI37ZSkKqQXVFt3-8ERK-12" style="edgeStyle=orthogonalEdgeStyle;rounded=0;orthogonalLoop=1;jettySize=auto;html=1;entryX=0;entryY=0.5;entryDx=0;entryDy=0;" edge="1" parent="1" source="LI37ZSkKqQXVFt3-8ERK-1" target="LI37ZSkKqQXVFt3-8ERK-5">
          <mxGeometry relative="1" as="geometry" />
        </mxCell>
        <mxCell id="LI37ZSkKqQXVFt3-8ERK-1" value="" style="sketch=0;html=1;aspect=fixed;strokeColor=none;shadow=0;align=center;verticalAlign=top;fillColor=#3B8DF1;shape=mxgraph.gcp2.play_start" vertex="1" parent="1">
          <mxGeometry x="30" y="180" width="60" height="60" as="geometry" />
        </mxCell>
        <mxCell id="LI37ZSkKqQXVFt3-8ERK-4" value="End" style="shape=image;html=1;verticalAlign=top;verticalLabelPosition=bottom;labelBackgroundColor=#ffffff;imageAspect=0;aspect=fixed;image=https://cdn0.iconfinder.com/data/icons/world-issues/500/stop_sign-128.png;imageBackground=none;imageBorder=none;sketch=1;" vertex="1" parent="1">
          <mxGeometry x="670" y="177" width="68" height="68" as="geometry" />
        </mxCell>
        <mxCell id="LI37ZSkKqQXVFt3-8ERK-13" style="edgeStyle=orthogonalEdgeStyle;rounded=0;orthogonalLoop=1;jettySize=auto;html=1;" edge="1" parent="1" source="LI37ZSkKqQXVFt3-8ERK-5">
          <mxGeometry relative="1" as="geometry">
            <mxPoint x="270" y="210" as="targetPoint" />
          </mxGeometry>
        </mxCell>
        <mxCell id="LI37ZSkKqQXVFt3-8ERK-5" value="" style="shape=image;html=1;verticalAlign=top;verticalLabelPosition=bottom;labelBackgroundColor=#ffffff;imageAspect=0;aspect=fixed;image=https://cdn4.iconfinder.com/data/icons/free-colorful-icons/128/chrome.png" vertex="1" parent="1">
          <mxGeometry x="160" y="180" width="60" height="60" as="geometry" />
        </mxCell>
        <mxCell id="LI37ZSkKqQXVFt3-8ERK-14" style="edgeStyle=orthogonalEdgeStyle;rounded=0;orthogonalLoop=1;jettySize=auto;html=1;" edge="1" parent="1" source="LI37ZSkKqQXVFt3-8ERK-6">
          <mxGeometry relative="1" as="geometry">
            <mxPoint x="390" y="210" as="targetPoint" />
          </mxGeometry>
        </mxCell>
        <mxCell id="LI37ZSkKqQXVFt3-8ERK-6" value="Enter the Parameter - &lt;br&gt;Shape , Size , Lamination" style="sketch=0;outlineConnect=0;fontColor=#232F3E;gradientColor=none;strokeColor=#232F3E;fillColor=#ffffff;dashed=0;verticalLabelPosition=bottom;verticalAlign=top;align=center;html=1;fontSize=12;fontStyle=0;aspect=fixed;shape=mxgraph.aws4.resourceIcon;resIcon=mxgraph.aws4.parameter_store;" vertex="1" parent="1">
          <mxGeometry x="280" y="180" width="60" height="60" as="geometry" />
        </mxCell>
        <mxCell id="LI37ZSkKqQXVFt3-8ERK-15" style="edgeStyle=orthogonalEdgeStyle;rounded=0;orthogonalLoop=1;jettySize=auto;html=1;" edge="1" parent="1" source="LI37ZSkKqQXVFt3-8ERK-9">
          <mxGeometry relative="1" as="geometry">
            <mxPoint x="530" y="210" as="targetPoint" />
          </mxGeometry>
        </mxCell>
        <mxCell id="LI37ZSkKqQXVFt3-8ERK-9" value="" style="shape=image;html=1;verticalAlign=top;verticalLabelPosition=bottom;labelBackgroundColor=#ffffff;imageAspect=0;aspect=fixed;image=https://cdn1.iconfinder.com/data/icons/icons-for-a-site-1/64/advantage_sale-128.png" vertex="1" parent="1">
          <mxGeometry x="410" y="180" width="60" height="60" as="geometry" />
        </mxCell>
        <mxCell id="LI37ZSkKqQXVFt3-8ERK-10" value="Retrieve the &lt;br&gt;Price&amp;nbsp;" style="text;html=1;align=center;verticalAlign=middle;resizable=0;points=[];autosize=1;strokeColor=none;fillColor=none;" vertex="1" parent="1">
          <mxGeometry x="395" y="235" width="90" height="40" as="geometry" />
        </mxCell>
        <mxCell id="LI37ZSkKqQXVFt3-8ERK-16" style="edgeStyle=orthogonalEdgeStyle;rounded=0;orthogonalLoop=1;jettySize=auto;html=1;" edge="1" parent="1" source="LI37ZSkKqQXVFt3-8ERK-11" target="LI37ZSkKqQXVFt3-8ERK-4">
          <mxGeometry relative="1" as="geometry" />
        </mxCell>
        <mxCell id="LI37ZSkKqQXVFt3-8ERK-11" value="" style="shape=image;html=1;verticalAlign=top;verticalLabelPosition=bottom;labelBackgroundColor=#ffffff;imageAspect=0;aspect=fixed;image=https://cdn3.iconfinder.com/data/icons/document-icons-2/30/647708-excel-128.png" vertex="1" parent="1">
          <mxGeometry x="550" y="182" width="58" height="58" as="geometry" />
        </mxCell>
        <mxCell id="LI37ZSkKqQXVFt3-8ERK-17" value="Save it to the &lt;br&gt;Excel" style="text;html=1;align=center;verticalAlign=middle;resizable=0;points=[];autosize=1;strokeColor=none;fillColor=none;" vertex="1" parent="1">
          <mxGeometry x="525" y="240" width="90" height="40" as="geometry" />
        </mxCell>
        <mxCell id="LI37ZSkKqQXVFt3-8ERK-18" value="Start" style="text;html=1;align=center;verticalAlign=middle;resizable=0;points=[];autosize=1;strokeColor=none;fillColor=none;" vertex="1" parent="1">
          <mxGeometry x="31" y="236" width="50" height="30" as="geometry" />
        </mxCell>
        <mxCell id="LI37ZSkKqQXVFt3-8ERK-19" value="" style="rounded=0;whiteSpace=wrap;html=1;fontSize=36;strokeWidth=2;" vertex="1" parent="1">
          <mxGeometry x="220" y="25" width="370" height="50" as="geometry" />
        </mxCell>
        <mxCell id="LI37ZSkKqQXVFt3-8ERK-20" value="&lt;b&gt;&lt;i&gt;&lt;font style=&quot;font-size: 36px;&quot;&gt;Competitive Pricing&lt;/font&gt;&lt;/i&gt;&lt;/b&gt;" style="text;html=1;align=center;verticalAlign=middle;resizable=0;points=[];autosize=1;strokeColor=none;fillColor=none;fontSize=24;" vertex="1" parent="1">
          <mxGeometry x="220" y="20" width="360" height="60" as="geometry" />
        </mxCell>
        <mxCell id="LI37ZSkKqQXVFt3-8ERK-21" value="&lt;font style=&quot;font-size: 24px;&quot;&gt;&lt;b&gt;&lt;i&gt;High Level AS-IS Process&amp;nbsp;&lt;/i&gt;&lt;/b&gt;&lt;/font&gt;" style="text;html=1;align=center;verticalAlign=middle;resizable=0;points=[];autosize=1;strokeColor=none;fillColor=none;" vertex="1" parent="1">
          <mxGeometry x="530" y="100" width="320" height="40" as="geometry" />
        </mxCell>
      </root>
    </mxGraphModel>
  </diagram>
</mxfile>
